<svg xmlns="http://www.w3.org/2000/svg" viewBox="0 0 200 200" fill="none">
  <!-- Moon -->
  <path d="M140,60 Q120,80 120,100 Q120,120 140,140 Q100,145 80,120 Q60,95 80,70 Q100,48 140,60 Z" fill="#C3A8E0" opacity="0.6"/>
  <!-- Stars scattered -->
  <polygon points="40,40 43,48 52,48 45,53 48,62 40,57 32,62 35,53 28,48 37,48" fill="#9B72CF" opacity="0.7"/>
  <polygon points="160,30 162,36 168,36 163,40 165,46 160,43 155,46 157,40 152,36 158,36" fill="#9B72CF" opacity="0.5"/>
  <circle cx="60" cy="80" r="3" fill="#C3A8E0"/>
  <circle cx="170" cy="80" r="2" fill="#C3A8E0"/>
  <circle cx="30" cy="130" r="2" fill="#C3A8E0"/>
  <circle cx="80" cy="20" r="2" fill="#9B72CF" opacity="0.6"/>
  <circle cx="190" cy="110" r="3" fill="#9B72CF" opacity="0.5"/>
  <!-- Small sparkles -->
  <line x1="100" y1="150" x2="100" y2="160" stroke="#C3A8E0" stroke-width="1.5"/>
  <line x1="95" y1="155" x2="105" y2="155" stroke="#C3A8E0" stroke-width="1.5"/>
  <line x1="150" y1="170" x2="150" y2="178" stroke="#9B72CF" stroke-width="1.5"/>
  <line x1="146" y1="174" x2="154" y2="174" stroke="#9B72CF" stroke-width="1.5"/>
  <!-- Cloud shape bottom -->
  <ellipse cx="50" cy="170" rx="20" ry="10" fill="#E8DCFF" opacity="0.5"/>
  <ellipse cx="65" cy="165" rx="15" ry="8" fill="#E8DCFF" opacity="0.5"/>
  <ellipse cx="35" cy="165" rx="15" ry="8" fill="#E8DCFF" opacity="0.5"/>
</svg>