<svg xmlns="http://www.w3.org/2000/svg" viewBox="0 0 200 200" fill="none">
  <!-- Classic ornamental frame corners -->
  <!-- Top-left corner -->
  <path d="M10,10 L60,10 L60,15 L15,15 L15,60 L10,60 Z" stroke="#8B5E3C" stroke-width="1.5" fill="none"/>
  <path d="M20,20 L50,20 L50,24 L24,24 L24,50 L20,50 Z" stroke="#D4956A" stroke-width="1" fill="none" opacity="0.5"/>
  <circle cx="20" cy="20" r="3" fill="#8B5E3C" opacity="0.6"/>
  <!-- Top-right corner -->
  <path d="M190,10 L140,10 L140,15 L185,15 L185,60 L190,60 Z" stroke="#8B5E3C" stroke-width="1.5" fill="none"/>
  <path d="M180,20 L150,20 L150,24 L176,24 L176,50 L180,50 Z" stroke="#D4956A" stroke-width="1" fill="none" opacity="0.5"/>
  <circle cx="180" cy="20" r="3" fill="#8B5E3C" opacity="0.6"/>
  <!-- Bottom-left corner -->
  <path d="M10,190 L60,190 L60,185 L15,185 L15,140 L10,140 Z" stroke="#8B5E3C" stroke-width="1.5" fill="none"/>
  <path d="M20,180 L50,180 L50,176 L24,176 L24,150 L20,150 Z" stroke="#D4956A" stroke-width="1" fill="none" opacity="0.5"/>
  <circle cx="20" cy="180" r="3" fill="#8B5E3C" opacity="0.6"/>
  <!-- Bottom-right corner -->
  <path d="M190,190 L140,190 L140,185 L185,185 L185,140 L190,140 Z" stroke="#8B5E3C" stroke-width="1.5" fill="none"/>
  <path d="M180,180 L150,180 L150,176 L176,176 L176,150 L180,150 Z" stroke="#D4956A" stroke-width="1" fill="none" opacity="0.5"/>
  <circle cx="180" cy="180" r="3" fill="#8B5E3C" opacity="0.6"/>
  <!-- Center leaf motif -->
  <path d="M100,80 Q115,95 100,120 Q85,95 100,80 Z" fill="#8B5E3C" opacity="0.3"/>
  <path d="M100,85 Q112,98 100,115" stroke="#8B5E3C" stroke-width="1" fill="none" opacity="0.5"/>
</svg>