<svg xmlns="http://www.w3.org/2000/svg" viewBox="0 0 300 60" fill="none">
  <!-- Confetti divider -->
  <line x1="0" y1="30" x2="300" y2="30" stroke="#FFD166" stroke-width="1" opacity="0.4" stroke-dasharray="4,6"/>
  <!-- Scattered confetti pieces -->
  <rect x="10" y="15" width="8" height="5" rx="1" fill="#FF6B8A" opacity="0.6" transform="rotate(25,14,17)"/>
  <rect x="35" y="38" width="6" height="4" rx="1" fill="#4DD9C0" opacity="0.7" transform="rotate(-15,38,40)"/>
  <rect x="60" y="12" width="7" height="4" rx="1" fill="#FFD166" opacity="0.7" transform="rotate(40,63,14)"/>
  <rect x="85" y="40" width="6" height="5" rx="1" fill="#FF6B8A" opacity="0.5" transform="rotate(-30,88,42)"/>
  <circle cx="110" cy="20" r="4" fill="#4DD9C0" opacity="0.6"/>
  <circle cx="135" cy="42" r="3" fill="#FFD166" opacity="0.7"/>
  <rect x="155" y="15" width="8" height="5" rx="1" fill="#FF6B8A" opacity="0.6" transform="rotate(-20,159,17)"/>
  <rect x="180" y="38" width="6" height="4" rx="1" fill="#4DD9C0" opacity="0.7" transform="rotate(35,183,40)"/>
  <circle cx="205" cy="18" r="4" fill="#FFD166" opacity="0.6"/>
  <rect x="225" y="36" width="7" height="5" rx="1" fill="#FF6B8A" opacity="0.5" transform="rotate(-10,228,38)"/>
  <rect x="255" y="14" width="6" height="4" rx="1" fill="#4DD9C0" opacity="0.6" transform="rotate(20,258,16)"/>
  <circle cx="280" cy="40" r="3" fill="#FFD166" opacity="0.7"/>
  <!-- Center star burst -->
  <polygon points="150,10 152,18 160,18 154,23 156,31 150,26 144,31 146,23 140,18 148,18" fill="#FFD166" opacity="0.8"/>
</svg>